# xmcd
#
# Track frame offsets:
#	150
#	36579
#	74047
#	122844
#	164110
#	188457
#
# Disc length: 2837 seconds
#
# Revision: 1
# Processed by: cddbd v1.5.2PL0 Copyright (c) Steve Scherf et al.
# Submitted via: audiograbber 1.83.01
#
DISCID=5b0b1306
DTITLE=Grateful Dead - 93-05-16 Sam Boyd Silver Bowl, Las Vegas NV
DYEAR=1900
DGENRE=
TTITLE0=Elvis Space
TTITLE1=The Other One
TTITLE2=Wharf Rat
TTITLE3=Throwing Stones
TTITLE4=Turn On Your Lovelight
TTITLE5=Brokedown Palace
EXTD=
EXTT0=
EXTT1=
EXTT2=
EXTT3=
EXTT4=
EXTT5=
PLAYORDER=
